<svg id="Layer_2" data-name="Layer 2" xmlns="http://www.w3.org/2000/svg" viewBox="0 0 460.28 85.04"><defs><style>.cls-1{fill:#ec001e;}.cls-2{fill:#00123f;}.cls-3{fill:#fff;}</style></defs><title>Лига Новости</title><polygon class="cls-1" points="211.1 84.5 202.82 84.5 204.62 76.04 212.9 76.04 211.1 84.5"/><path class="cls-2" d="M106.14,41.47L97.67,84.68H81.83l6.12-31H80.21l-1.44,7.2C76.61,71.18,75,84.68,59.33,84.68A29,29,0,0,1,51.4,83.6L53.56,73a22.06,22.06,0,0,0,3.42.36,5.09,5.09,0,0,0,4.32-2.7c0.9-1.26,2.16-4.14,4.32-15.12l2.88-14h37.63Zm21.79,0H112.08l-2.34,12.6h16ZM104.52,79.64l-0.9,5h15.84l5.76-29.35C111.72,57,106.86,67.4,104.52,79.64Zm93.26,5H181l-1.08-9h-12.6l-4.5,9H147l23-43.21h21.42ZM180.13,65.24l-1.62-13h-0.18l-7,13h8.82ZM157.81,54.07l6.48-12.6H133.86L125.4,84.68h15.84l6.12-30.61h10.44Z" transform="translate(0 0)"/><circle class="cls-3" cx="28.9" cy="28.87" r="28.81"/><path class="cls-1" d="M23.86,57.31a27.82,27.82,0,0,1-9.36-3.42c7.2-.36,17.46-3.24,19.08-11.34a6.75,6.75,0,0,0,0-2.7c7-.18,18.18-3.06,19.62-11.52,1.26-7.56-8.1-10.08-10.44-16C42,10.14,42,6.18,43.84,4.56a28.82,28.82,0,0,1,13.5,29.53A29.21,29.21,0,0,1,23.86,57.31h0ZM13.78,53.53A28.9,28.9,0,0,1,33.76.42a31.19,31.19,0,0,1,9.18,3.42C36.1,4.2,25.66,7.08,24.22,15.18a7.73,7.73,0,0,0,0,2.88C17,18.24,6,20.94,4.59,29.41c-1.26,7.74,8.1,10.08,10.44,16,0.72,2.34.72,6.3-1.26,8.1h0ZM24.4,18.42c1.26,5.22,8.46,7.92,10.26,13,0.72,2.16.72,6.3-1.26,7.92-1.26-5.22-8.46-7.92-10.26-13-0.9-2.16-.9-6.12,1.26-7.92h0Z" transform="translate(0 0)"/><path class="cls-1" d="M237.21,41.47l-3.42,17.28h17.46l3.42-17.28h8.82l-8.82,43h-8.82l3.78-17.82H232.35L228.57,84.5h-8.82l8.82-43h8.64Z" transform="translate(0 0)"/><path class="cls-1" d="M268.71,57.31c4.68-4.5,10.08-5,13.86-5,2.88,0,7,.54,10.08,3.78,1.62,1.62,3.42,4.68,3.42,9.72a19.65,19.65,0,0,1-5.22,13.68C286.54,83.78,281.5,85,276.28,85c-2.88,0-6.66-.36-9.72-3.24a12.63,12.63,0,0,1-4-9.72A20.61,20.61,0,0,1,268.71,57.31Zm5.4,5.22a16.79,16.79,0,0,0-2.88,9.36c0,0.72,0,3.42,1.44,5a5.36,5.36,0,0,0,4.5,2.16c3.42,0,6.84-2.16,8.82-6.84a16.7,16.7,0,0,0,1.44-6.84,7.24,7.24,0,0,0-1.44-5,5.13,5.13,0,0,0-4.32-2.16C279.16,58.21,276.64,59.11,274.12,62.53Z" transform="translate(0 0)"/><path class="cls-1" d="M319.85,52.63c4.14,0,5.76.9,6.66,1.44A6.08,6.08,0,0,1,329,58.93a7.75,7.75,0,0,1-2.16,5.58,14.2,14.2,0,0,1-5.4,2.88v0.18a6.62,6.62,0,0,1,4.86,2.34,6.08,6.08,0,0,1,1.08,3.6,9.78,9.78,0,0,1-4.32,8.1c-2.16,1.62-5.4,2.52-9.54,2.52h-16.2l6.48-31.87h16v0.36ZM306.7,79.1h6.48a4.77,4.77,0,0,0,3.6-1.26,4.88,4.88,0,0,0,1.8-4,2.7,2.7,0,0,0-1.08-2.34c-0.9-.72-2.52-0.72-3.78-0.72H308.5Zm2.88-14h5.22a6.8,6.8,0,0,0,3.78-.72,3.9,3.9,0,0,0,1.8-3.42,3,3,0,0,0-.9-2.16,4.58,4.58,0,0,0-2.7-.54H311.2Z" transform="translate(0 0)"/><path class="cls-1" d="M337.85,57.31c4.68-4.5,10.08-5,13.86-5,2.88,0,7,.54,10.08,3.78,1.62,1.62,3.42,4.68,3.42,9.72A19.65,19.65,0,0,1,360,79.46c-4.32,4.32-9.36,5.58-14.58,5.58-2.88,0-6.66-.36-9.72-3.24a12.63,12.63,0,0,1-4-9.72A22.2,22.2,0,0,1,337.85,57.31Zm5.58,5.22a16.79,16.79,0,0,0-2.88,9.36c0,0.72,0,3.42,1.44,5a5.36,5.36,0,0,0,4.5,2.16c3.42,0,6.84-2.16,8.82-6.84a16.7,16.7,0,0,0,1.44-6.84,7.24,7.24,0,0,0-1.44-5A5.13,5.13,0,0,0,351,58.21C348.47,58.21,345.77,59.11,343.43,62.53Z" transform="translate(0 0)"/><path class="cls-1" d="M393.66,59.11a11.44,11.44,0,0,0-4.14-.9,12.84,12.84,0,0,0-9.36,3.6,14.75,14.75,0,0,0-4,9.72,7.58,7.58,0,0,0,2,5.4,7.33,7.33,0,0,0,5.58,2,19.08,19.08,0,0,0,6.66-1.26l-0.9,6.12A25.59,25.59,0,0,1,382,85c-3.6,0-7.92-.72-11.16-4.14-1.44-1.44-3.24-4.5-3.24-9.54a18.21,18.21,0,0,1,5.76-13.5,21.77,21.77,0,0,1,15.3-5.76,26.24,26.24,0,0,1,6.84.9Z" transform="translate(0 0)"/><path class="cls-1" d="M425.71,52.63l-1.26,6.84h-9.9l-5.22,25H401l5.22-25H396.18l1.26-6.84h28.27Z" transform="translate(0 0)"/><path class="cls-1" d="M437.23,52.63L434,68.84l-1.44,5.76h0.18l18.18-21.79h9.36L453.8,84.68h-8.28l3.24-15.84,1.44-6.12H450L431.47,84.5h-9L429,52.63h8.28Z" transform="translate(0 0)"/></svg>